<?xml version="1.0" encoding="UTF-8"?>
<svg xmlns="http://www.w3.org/2000/svg" viewBox="440 220 320 460">
  <g fill="none" stroke-width="2">
    <path stroke="#8d8d8d" d="M495.57 245.96c-17.98-.47-39.76.98-61.87.06q-.73-.03-.32.57l46.98 68.23a1 .97-16.6 0 0 .82.43h98.78q.54 0 .24-.44l-45.68-68.11a1.66 1.64-17.3 0 0-1.41-.73q-18.71.48-37.54-.01m175.3 70.73c34.5 8.58 50.18 50.06 27.72 78.68q-13.8 17.58-36.37 19.47a.3.3 0 0 0-.23.46l31.77 47.41a1.75 1.75 0 0 0 1.45.77q3.74.02 7.84.03c5.01 0 6.91-1.27 11-3.7q35.77-21.28 47.68-60.18c17.17-56.07-1.92-117.25-58.53-141.39-18.38-7.84-36.89-11.52-56.95-11.91q-47.58-.93-70.19-.22-13.28.41-26.79-.14-.84-.03-.37.66l45.71 68.19a1.03 1.01-16.5 0 0 .85.45q30.03-.07 59.92.02 9.97.03 15.49 1.4m38.98 330.68a94.825 94.825 0 0 0 52.62-59.7 1.8 1.79-53.9 0 0-.23-1.49l-114.69-171a.98.98 0 0 0-.81-.43h-96.98q-.62 0-.27.51l159.59 231.89a.63.62 60.4 0 0 .77.22" vector-effect="non-scaling-stroke"/>
    <path stroke="#e6e6e6" d="M768.11 572.39a.34.34 0 0 0 .42.01c1.29-1 .97-16.39.86-17.83-2.56-35.31-24.53-67.31-57.8-80.68q-4.79-1.92-10.35-.77a.34.34 0 0 0-.22.52q31.89 47.58 63.64 95.14 1.29 1.92 3.45 3.61m-323.17 81.89q117.37-.41 234.75-.16 9.26.02 17.6-2.8a.41.41 0 0 0 .21-.61l-43.18-63.42q-1-1.46-2.76-1.29c-4.95.49-10.97.05-14.53.04q-85.52-.16-172.81.09a1.36 1.35-77.1 0 0-1.22.77l-32.21 66.71a.44.44 0 0 0 .39.64q6.82.06 13.76.03" vector-effect="non-scaling-stroke"/>
  </g>
  <path fill="#6f42c1" d="M495.57 245.96q18.83.49 37.54.01a1.66 1.64-17.3 0 1 1.41.73l45.68 68.11q.3.44-.24.44h-98.78a1 .97-16.6 0 1-.82-.43l-46.98-68.23q-.41-.6.32-.57c22.11.92 43.89-.53 61.87-.06Zm159.81 69.33q-29.89-.09-59.92-.02a1.03 1.01-16.5 0 1-.85-.45l-45.71-68.19q-.47-.69.37-.66 13.51.55 26.79.14 22.61-.71 70.19.22c20.06.39 38.57 4.07 56.95 11.91 56.61 24.14 75.7 85.32 58.53 141.39q-11.91 38.9-47.68 60.18c-4.09 2.43-5.99 3.7-11 3.7q-4.1-.01-7.84-.03a1.75 1.75 0 0 1-1.45-.77l-31.77-47.41a.3.3 0 0 1 .23-.46q22.57-1.89 36.37-19.47c22.46-28.62 6.78-70.1-27.72-78.68q-5.52-1.37-15.49-1.4Zm107.09 272.38a94.825 94.825 0 0 1-52.62 59.7.63.62 60.4 0 1-.77-.22L549.49 415.26q-.35-.51.27-.51h96.98a.98.98 0 0 1 .81.43l114.69 171a1.8 1.79-53.9 0 1 .23 1.49Z"/>
  <path fill="#b197fc" d="M768.11 572.39q-2.16-1.69-3.45-3.61-31.75-47.56-63.64-95.14a.34.34 0 0 1 .22-.52q5.56-1.15 10.35.77c33.27 13.37 55.24 45.37 57.8 80.68.11 1.44.43 16.83-.86 17.83a.34.34 0 0 1-.42-.01Zm-323.17 81.89q-6.94.03-13.76-.03a.44.44 0 0 1-.39-.64L463 586.9a1.36 1.35-77.1 0 1 1.22-.77q87.29-.25 172.81-.09c3.56.01 9.58.45 14.53-.04q1.76-.17 2.76 1.29l43.18 63.42a.41.41 0 0 1-.21.61q-8.34 2.82-17.6 2.8-117.38-.25-234.75.16Z"/>
</svg> 